<svg width="141" height="744" viewBox="0 0 141 744" fill="none" xmlns="http://www.w3.org/2000/svg">
<path opacity="0.1" fill-rule="evenodd" clip-rule="evenodd" d="M2.17459 603.422C6.76802 622.266 23.2249 641.821 48.0495 657.931C54.831 662.331 66.4139 669.826 73.7898 674.584C81.7415 679.713 86.9256 683.979 86.5262 685.064C80.3577 701.84 82.9265 729.839 91.4726 738.989C108.938 757.684 123.877 720.268 111.299 689.334L107.289 679.469L111.043 670.091C115.764 658.297 115.786 650.594 111.126 640.584C107.497 632.787 107.495 632.751 110.415 630.706C114.351 627.95 114.427 616.307 110.556 608.723C107.805 603.328 107.805 603.231 110.556 601.513C114.514 599.041 114.074 593.084 109.129 582.216C104.958 573.048 104.528 570.081 107.857 573.41C111.899 577.452 113.346 575.273 113.346 565.156L113.346 555.185L100.424 546.68C89.3254 539.376 86.9702 537.093 83.7512 530.529C79.0742 520.993 78.543 520.891 96.6585 533.044C114.956 545.32 113.346 545.316 113.346 533.081L113.346 522.96L100.294 514.186C88.4301 506.208 79.9695 496.271 79.9695 490.314C79.9695 489.903 84.9511 492.821 91.0398 496.795C111.485 510.142 119.418 503.008 108.457 481.131C101.083 466.409 100.923 465.391 105.623 463.136C117.443 457.469 115.931 436.476 101.657 408.089C95.5924 396.025 95.0481 394.47 97.4126 395.93C100.75 397.994 109.25 393.477 111.31 388.545C118.872 370.446 105.901 343.376 87.5942 339.048C79.9156 337.234 75.4708 328.974 77.3765 320.063L78.7009 313.869L83.3259 320.751C102.313 349 122.091 333.266 107.149 301.799C102.662 292.352 102.253 290.707 104.387 290.707C110.82 290.707 113.613 286.488 113.104 277.547L112.621 269.073L116.249 271.374C129.855 280.01 131.497 282.735 128.419 291.591C124.825 301.94 132.202 303.449 137.385 293.424C144.107 280.426 138.213 264.521 122.861 254.229C114.228 248.441 112.146 246.154 107.985 237.904C103.078 228.167 103.117 226.699 108.182 230.531C112.785 234.014 113.346 233.147 113.346 222.541L113.346 212.421L100.294 203.645C88.4301 195.667 79.9695 185.73 79.9713 179.773C79.9713 179.365 84.9511 182.281 91.0398 186.256C111.949 199.904 119.57 192.708 108.175 170.079C105.329 164.431 103.208 159.685 103.459 159.537C103.709 159.386 105.873 158.625 108.267 157.844C114.835 155.703 114.882 148.728 108.422 134.747L103.334 123.735L107.476 126.682C113.314 130.839 113.349 130.793 113.312 119.111L113.277 108.591L99.7902 99.69C87.6871 91.7031 85.982 90.0221 83.1958 83.3167C81.435 79.0762 80.8499 76.3031 81.8455 76.9067C82.8095 77.49 87.4549 80.4507 92.1672 83.4839C111.34 95.8266 118.435 88.2148 108.267 66.2098C102.242 53.1706 102.389 54.1737 106.525 54.1737C116.253 54.1737 115.55 45.9545 103.78 22.0716C98.5178 11.3951 94.0024 2.44409 93.7461 2.17847C92.6204 1.02129 87.0704 5.2284 87.7038 6.76079C88.0902 7.69693 90.7389 13.5292 93.59 19.7219L98.7723 30.978L83.6156 20.8104C64.9763 8.30431 65.4592 8.3043 65.4592 20.7881L65.4592 30.9371L77.4898 38.9427C88.0883 45.9972 106.789 70.7791 97.0616 64.8799C96.0418 64.2614 91.3518 61.2727 86.6377 58.2395C67.8516 46.1458 59.3817 54.0436 69.6199 74.1114C73.5558 81.8271 73.5056 82.3305 69.0868 79.4347L65.4592 77.059L65.4592 87.9251L65.4592 98.7929L77.1777 106.486C87.5979 113.327 106.622 138.769 97.1099 133.141C96.0641 132.522 89.4814 128.189 82.4826 123.512C64.4803 111.483 65.4555 111.453 65.4796 124.035L65.5001 134.712L77.6607 142.651C88.77 149.902 98.8354 162.683 98.8354 169.537C98.8354 169.905 93.8538 166.953 87.7651 162.978C67.2776 149.603 59.0529 156.206 69.7666 177.429L74.2783 186.367L59.3482 176.4C51.1365 170.919 43.6009 165.95 42.6035 165.361C41.2197 164.542 40.7906 166.834 40.7906 175.044L40.7906 185.799L65.1527 201.985C88.9873 217.819 98.8354 228.286 98.8354 237.787C98.8354 238.182 91.4893 233.592 82.5104 227.589L66.1855 216.673L65.7564 226.978C65.5019 233.065 65.9886 238.082 66.9451 239.233C68.1376 240.671 68.1191 242.012 66.8727 244.341C60.4999 256.248 69.4675 276.079 85.5399 285.628C95.9118 291.79 104.352 311.021 96.6845 311.021C93.3263 311.021 86.0526 303.922 83.5135 298.166C81.4294 293.443 69.2038 283.253 67.8237 285.09C67.6008 285.385 66.6164 293.235 65.6338 302.533L63.847 319.437L68.1172 328.857C72.2871 338.053 72.3243 338.339 69.6793 340.986C59.0381 351.627 65.8957 379.594 81.6839 389.938C87.0445 393.451 91.3444 404.606 86.8067 403.23C71.2024 398.501 64.7478 401.863 65.045 414.57L65.2345 422.696L54.8273 415.729C49.1026 411.897 43.6009 408.28 42.6035 407.693C41.2197 406.878 40.7906 409.174 40.7906 417.382L40.7906 428.136L65.1527 444.322C89.2957 460.361 89.5557 460.591 94.1603 469.929C99.6899 481.14 99.8515 481.069 87.559 472.822C68.0188 459.715 59.2387 467.111 69.7109 487.858C75.064 498.461 75.0101 497.69 70.4761 498.828C63.6259 500.547 63.455 508.927 70.0044 521.797C72.3893 526.484 71.6092 529.87 69.0868 525.787C66.752 522.011 65.4611 525.258 65.4797 534.857L65.5001 545.378L77.6607 553.316C88.8109 560.596 98.8355 573.354 98.8355 580.266C98.8355 580.667 92.0001 576.41 83.6472 570.806C75.2925 565.2 67.7829 560.614 66.9582 560.614C64.8351 560.614 64.9893 580.531 67.1179 581.243C68.3327 581.648 68.2825 582.719 66.9303 585.247C59.3705 599.371 74.2542 625.725 93.369 632.064C101.651 634.811 103.577 641.134 99.6509 652.689C95.5292 664.811 95.9193 664.721 84.7635 656.103C79.2061 651.809 64.7014 642.116 52.5333 634.566C30.2887 620.762 16.8075 609.483 12.214 600.833C8.64031 594.102 8.72204 579.304 12.3552 575.282C20.2641 566.532 31.9827 579.515 32.0514 597.1C32.0756 603.385 32.6458 605.505 34.5032 606.218C46.1252 610.678 41.0581 563.46 28.9439 554.416C10.1448 540.379 -5.99255 569.924 2.17459 603.422ZM38.8459 119.474C43.7068 131.744 56.7534 129.771 56.7534 116.767C56.7534 101.845 40.408 97.9608 38.5914 112.452C38.2571 115.118 38.3722 118.277 38.8459 119.474ZM38.8514 16.4454C43.2294 27.4414 56.7534 25.3815 56.7534 13.7187C56.7534 -1.65898 40.4637 -5.51316 38.5914 9.42247C38.2571 12.0879 38.3741 15.2474 38.8514 16.4454ZM77.3877 589.923C80.9651 589.233 96.9687 600.588 99.6063 605.687C103.925 614.038 97.4238 615.434 86.8457 608.428C76.3438 601.474 71.0631 591.139 77.3877 589.923ZM78.6693 356.306C85.7925 355.448 105.543 370.831 103.65 375.764C102.313 379.247 96.6827 377.967 87.6425 372.124C74.6665 363.739 70.9758 357.231 78.6693 356.306ZM76.3568 247.692C78.621 246.823 95.7855 257.187 100.546 262.297C104.018 266.023 103.904 269.968 100.295 271.114C91.2887 273.973 67.7884 250.98 76.3568 247.692ZM78.1362 421.307C82.5197 421.307 95.9769 428.955 100.346 433.932C107.395 441.959 103.078 446.259 92.9808 441.265C80.5732 435.126 70.2941 421.307 78.1362 421.307ZM97.4795 708.629C99.4373 696.511 100.62 695.516 104.034 703.113C108.802 713.721 106.887 733.298 101.081 733.298C96.5898 733.298 95.1206 723.227 97.4795 708.629Z" fill="#040404"/>
</svg>
