<svg width="150" height="150" viewBox="0 0 150 150" fill="none" xmlns="http://www.w3.org/2000/svg">
<rect opacity="0.5" x="1" y="1" width="148" height="148" rx="7" stroke="#D8A016" stroke-width="2" stroke-dasharray="4 4"/>
<path d="M54.2321 20.373H50.4561V24.1405H54.2321V20.373Z" fill="black"/>
<path d="M61.7834 20.373H58.0073V24.1405H61.7834V20.373Z" fill="black"/>
<path d="M76.8881 20.373H73.1121V24.1405H76.8881V20.373Z" fill="black"/>
<path d="M84.4403 20.373H80.6643V24.1405H84.4403V20.373Z" fill="black"/>
<path d="M91.9921 20.373H88.2161V24.1405H91.9921V20.373Z" fill="black"/>
<path d="M54.2316 24.1406H50.4556V27.9081H54.2316V24.1406Z" fill="black"/>
<path d="M61.7834 24.1406H58.0073V27.9081H61.7834V24.1406Z" fill="black"/>
<path d="M65.5607 24.1406H61.7847V27.9081H65.5607V24.1406Z" fill="black"/>
<path d="M91.9924 24.1406H88.2163V27.9081H91.9924V24.1406Z" fill="black"/>
<path d="M95.769 24.1406H91.9929V27.9081H95.769V24.1406Z" fill="black"/>
<path d="M99.5444 24.1406H95.7683V27.9081H99.5444V24.1406Z" fill="black"/>
<path d="M54.2321 27.9082H50.4561V31.6756H54.2321V27.9082Z" fill="black"/>
<path d="M65.5607 27.9082H61.7847V31.6756H65.5607V27.9082Z" fill="black"/>
<path d="M73.112 27.9082H69.3359V31.6756H73.112V27.9082Z" fill="black"/>
<path d="M76.8883 27.9082H73.1123V31.6756H76.8883V27.9082Z" fill="black"/>
<path d="M80.6638 27.9082H76.8877V31.6756H80.6638V27.9082Z" fill="black"/>
<path d="M84.4406 27.9082H80.6646V31.6756H84.4406V27.9082Z" fill="black"/>
<path d="M95.769 27.9082H91.9929V31.6756H95.769V27.9082Z" fill="black"/>
<path d="M99.5441 27.9082H95.7681V31.6756H99.5441V27.9082Z" fill="black"/>
<path d="M61.7834 31.6758H58.0073V35.4432H61.7834V31.6758Z" fill="black"/>
<path d="M69.3364 31.6758H65.5603V35.4432H69.3364V31.6758Z" fill="black"/>
<path d="M76.8881 31.6758H73.1121V35.4432H76.8881V31.6758Z" fill="black"/>
<path d="M88.2165 31.6758H84.4404V35.4432H88.2165V31.6758Z" fill="black"/>
<path d="M95.7692 31.6758H91.9932V35.4432H95.7692V31.6758Z" fill="black"/>
<path d="M99.5446 31.6758H95.7686V35.4432H99.5446V31.6758Z" fill="black"/>
<path d="M54.2316 35.4419H50.4556V39.2093H54.2316V35.4419Z" fill="black"/>
<path d="M65.5597 35.4419H61.7837V39.2093H65.5597V35.4419Z" fill="black"/>
<path d="M69.3364 35.4419H65.5603V39.2093H69.3364V35.4419Z" fill="black"/>
<path d="M73.112 35.4419H69.3359V39.2093H73.112V35.4419Z" fill="black"/>
<path d="M76.8883 35.4419H73.1123V39.2093H76.8883V35.4419Z" fill="black"/>
<path d="M84.4401 35.4419H80.6641V39.2093H84.4401V35.4419Z" fill="black"/>
<path d="M88.216 35.4419H84.4399V39.2093H88.216V35.4419Z" fill="black"/>
<path d="M91.9924 35.4419H88.2163V39.2093H91.9924V35.4419Z" fill="black"/>
<path d="M95.7685 35.4419H91.9924V39.2093H95.7685V35.4419Z" fill="black"/>
<path d="M58.0085 39.2109H54.2324V42.9784H58.0085V39.2109Z" fill="black"/>
<path d="M61.7834 39.2109H58.0073V42.9784H61.7834V39.2109Z" fill="black"/>
<path d="M65.5605 39.2109H61.7844V42.9784H65.5605V39.2109Z" fill="black"/>
<path d="M73.112 39.2109H69.3359V42.9784H73.112V39.2109Z" fill="black"/>
<path d="M76.8879 39.2109H73.1118V42.9784H76.8879V39.2109Z" fill="black"/>
<path d="M84.4401 39.2109H80.6641V42.9784H84.4401V39.2109Z" fill="black"/>
<path d="M88.2158 39.2109H84.4397V42.9784H88.2158V39.2109Z" fill="black"/>
<path d="M99.5444 39.2109H95.7683V42.9784H99.5444V39.2109Z" fill="black"/>
<path d="M54.2321 42.9785H50.4561V46.7459H54.2321V42.9785Z" fill="black"/>
<path d="M61.7834 42.9785H58.0073V46.7459H61.7834V42.9785Z" fill="black"/>
<path d="M69.3364 42.9785H65.5603V46.7459H69.3364V42.9785Z" fill="black"/>
<path d="M76.8883 42.9785H73.1123V46.7459H76.8883V42.9785Z" fill="black"/>
<path d="M84.4403 42.9785H80.6643V46.7459H84.4403V42.9785Z" fill="black"/>
<path d="M91.9921 42.9785H88.2161V46.7459H91.9921V42.9785Z" fill="black"/>
<path d="M99.5441 42.9785H95.7681V46.7459H99.5441V42.9785Z" fill="black"/>
<path d="M61.7834 46.7446H58.0073V50.5121H61.7834V46.7446Z" fill="black"/>
<path d="M65.5607 46.7446H61.7847V50.5121H65.5607V46.7446Z" fill="black"/>
<path d="M69.3361 46.7446H65.5601V50.5121H69.3361V46.7446Z" fill="black"/>
<path d="M76.8883 46.7446H73.1123V50.5121H76.8883V46.7446Z" fill="black"/>
<path d="M91.9924 46.7446H88.2163V50.5121H91.9924V46.7446Z" fill="black"/>
<path d="M99.5439 46.7446H95.7678V50.5121H99.5439V46.7446Z" fill="black"/>
<path d="M24.0234 50.5137H20.2473V54.2811H24.0234V50.5137Z" fill="black"/>
<path d="M35.3522 50.5137H31.5762V54.2811H35.3522V50.5137Z" fill="black"/>
<path d="M39.1276 50.5137H35.3516V54.2811H39.1276V50.5137Z" fill="black"/>
<path d="M42.904 50.5137H39.1279V54.2811H42.904V50.5137Z" fill="black"/>
<path d="M46.6796 50.5137H42.9036V54.2811H46.6796V50.5137Z" fill="black"/>
<path d="M50.456 50.5137H46.6799V54.2811H50.456V50.5137Z" fill="black"/>
<path d="M54.2314 50.5137H50.4553V54.2811H54.2314V50.5137Z" fill="black"/>
<path d="M69.3364 50.5137H65.5603V54.2811H69.3364V50.5137Z" fill="black"/>
<path d="M73.112 50.5137H69.3359V54.2811H73.112V50.5137Z" fill="black"/>
<path d="M76.8883 50.5137H73.1123V54.2811H76.8883V50.5137Z" fill="black"/>
<path d="M80.6638 50.5137H76.8877V54.2811H80.6638V50.5137Z" fill="black"/>
<path d="M88.2158 50.5137H84.4397V54.2811H88.2158V50.5137Z" fill="black"/>
<path d="M95.7692 50.5137H91.9932V54.2811H95.7692V50.5137Z" fill="black"/>
<path d="M99.5441 50.5137H95.7681V54.2811H99.5441V50.5137Z" fill="black"/>
<path d="M103.321 50.5137H99.5447V54.2811H103.321V50.5137Z" fill="black"/>
<path d="M114.649 50.5137H110.873V54.2811H114.649V50.5137Z" fill="black"/>
<path d="M122.201 50.5137H118.425V54.2811H122.201V50.5137Z" fill="black"/>
<path d="M125.977 50.5137H122.201V54.2811H125.977V50.5137Z" fill="black"/>
<path d="M129.753 50.5137H125.977V54.2811H129.753V50.5137Z" fill="black"/>
<path d="M27.7997 54.2783H24.0237V58.0457H27.7997V54.2783Z" fill="black"/>
<path d="M31.5754 54.2783H27.7993V58.0457H31.5754V54.2783Z" fill="black"/>
<path d="M35.3517 54.2783H31.5757V58.0457H35.3517V54.2783Z" fill="black"/>
<path d="M42.904 54.2783H39.1279V58.0457H42.904V54.2783Z" fill="black"/>
<path d="M58.0085 54.2783H54.2324V58.0457H58.0085V54.2783Z" fill="black"/>
<path d="M65.5605 54.2783H61.7844V58.0457H65.5605V54.2783Z" fill="black"/>
<path d="M69.3364 54.2783H65.5603V58.0457H69.3364V54.2783Z" fill="black"/>
<path d="M76.8879 54.2783H73.1118V58.0457H76.8879V54.2783Z" fill="black"/>
<path d="M80.6638 54.2783H76.8877V58.0457H80.6638V54.2783Z" fill="black"/>
<path d="M91.9921 54.2783H88.2161V58.0457H91.9921V54.2783Z" fill="black"/>
<path d="M95.7692 54.2783H91.9932V58.0457H95.7692V54.2783Z" fill="black"/>
<path d="M110.873 54.2783H107.097V58.0457H110.873V54.2783Z" fill="black"/>
<path d="M114.648 54.2783H110.872V58.0457H114.648V54.2783Z" fill="black"/>
<path d="M122.201 54.2783H118.425V58.0457H122.201V54.2783Z" fill="black"/>
<path d="M125.977 54.2783H122.201V58.0457H125.977V54.2783Z" fill="black"/>
<path d="M35.3517 58.0459H31.5757V61.8133H35.3517V58.0459Z" fill="black"/>
<path d="M42.904 58.0459H39.1279V61.8133H42.904V58.0459Z" fill="black"/>
<path d="M46.6796 58.0459H42.9036V61.8133H46.6796V58.0459Z" fill="black"/>
<path d="M58.0085 58.0459H54.2324V61.8133H58.0085V58.0459Z" fill="black"/>
<path d="M61.7834 58.0459H58.0073V61.8133H61.7834V58.0459Z" fill="black"/>
<path d="M76.8879 58.0459H73.1118V61.8133H76.8879V58.0459Z" fill="black"/>
<path d="M80.6645 58.0459H76.8884V61.8133H80.6645V58.0459Z" fill="black"/>
<path d="M84.4401 58.0459H80.6641V61.8133H84.4401V58.0459Z" fill="black"/>
<path d="M88.2158 58.0459H84.4397V61.8133H88.2158V58.0459Z" fill="black"/>
<path d="M107.096 58.0459H103.32V61.8133H107.096V58.0459Z" fill="black"/>
<path d="M110.873 58.0459H107.097V61.8133H110.873V58.0459Z" fill="black"/>
<path d="M122.201 58.0459H118.425V61.8133H122.201V58.0459Z" fill="black"/>
<path d="M24.0231 61.8135H20.2471V65.5809H24.0231V61.8135Z" fill="black"/>
<path d="M27.8 61.8135H24.0239V65.5809H27.8V61.8135Z" fill="black"/>
<path d="M42.904 61.8135H39.1279V65.5809H42.904V61.8135Z" fill="black"/>
<path d="M76.8881 61.8135H73.1121V65.5809H76.8881V61.8135Z" fill="black"/>
<path d="M84.4399 61.8135H80.6638V65.5809H84.4399V61.8135Z" fill="black"/>
<path d="M88.216 61.8135H84.4399V65.5809H88.216V61.8135Z" fill="black"/>
<path d="M99.5446 61.8135H95.7686V65.5809H99.5446V61.8135Z" fill="black"/>
<path d="M103.321 61.8135H99.5447V65.5809H103.321V61.8135Z" fill="black"/>
<path d="M110.873 61.8135H107.097V65.5809H110.873V61.8135Z" fill="black"/>
<path d="M114.648 61.8135H110.872V65.5809H114.648V61.8135Z" fill="black"/>
<path d="M118.425 61.8135H114.649V65.5809H118.425V61.8135Z" fill="black"/>
<path d="M129.753 61.8135H125.977V65.5809H129.753V61.8135Z" fill="black"/>
<path d="M24.0236 65.5825H20.2476V69.3499H24.0236V65.5825Z" fill="black"/>
<path d="M27.799 65.5825H24.0229V69.3499H27.799V65.5825Z" fill="black"/>
<path d="M31.5754 65.5825H27.7993V69.3499H31.5754V65.5825Z" fill="black"/>
<path d="M35.3517 65.5825H31.5757V69.3499H35.3517V65.5825Z" fill="black"/>
<path d="M39.1276 65.5825H35.3516V69.3499H39.1276V65.5825Z" fill="black"/>
<path d="M46.6796 65.5825H42.9036V69.3499H46.6796V65.5825Z" fill="black"/>
<path d="M50.456 65.5825H46.6799V69.3499H50.456V65.5825Z" fill="black"/>
<path d="M54.2321 65.5825H50.4561V69.3499H54.2321V65.5825Z" fill="black"/>
<path d="M61.7834 65.5825H58.0073V69.3499H61.7834V65.5825Z" fill="black"/>
<path d="M65.5607 65.5825H61.7847V69.3499H65.5607V65.5825Z" fill="black"/>
<path d="M69.3364 65.5825H65.5603V69.3499H69.3364V65.5825Z" fill="black"/>
<path d="M73.112 65.5825H69.3359V69.3499H73.112V65.5825Z" fill="black"/>
<path d="M76.8879 65.5825H73.1118V69.3499H76.8879V65.5825Z" fill="black"/>
<path d="M80.6638 65.5825H76.8877V69.3499H80.6638V65.5825Z" fill="black"/>
<path d="M84.4403 65.5825H80.6643V69.3499H84.4403V65.5825Z" fill="black"/>
<path d="M91.9924 65.5825H88.2163V69.3499H91.9924V65.5825Z" fill="black"/>
<path d="M99.5441 65.5825H95.7681V69.3499H99.5441V65.5825Z" fill="black"/>
<path d="M107.096 65.5825H103.32V69.3499H107.096V65.5825Z" fill="black"/>
<path d="M110.873 65.5825H107.097V69.3499H110.873V65.5825Z" fill="black"/>
<path d="M129.753 65.5825H125.977V69.3499H129.753V65.5825Z" fill="black"/>
<path d="M24.0236 69.3486H20.2476V73.1161H24.0236V69.3486Z" fill="black"/>
<path d="M39.1276 69.3486H35.3516V73.1161H39.1276V69.3486Z" fill="black"/>
<path d="M42.904 69.3486H39.1279V73.1161H42.904V69.3486Z" fill="black"/>
<path d="M58.008 69.3486H54.2319V73.1161H58.008V69.3486Z" fill="black"/>
<path d="M61.7846 69.3486H58.0085V73.1161H61.7846V69.3486Z" fill="black"/>
<path d="M69.3364 69.3486H65.5603V73.1161H69.3364V69.3486Z" fill="black"/>
<path d="M80.6638 69.3486H76.8877V73.1161H80.6638V69.3486Z" fill="black"/>
<path d="M84.4403 69.3486H80.6643V73.1161H84.4403V69.3486Z" fill="black"/>
<path d="M88.2165 69.3486H84.4404V73.1161H88.2165V69.3486Z" fill="black"/>
<path d="M91.9924 69.3486H88.2163V73.1161H91.9924V69.3486Z" fill="black"/>
<path d="M99.5451 69.3486H95.769V73.1161H99.5451V69.3486Z" fill="black"/>
<path d="M103.32 69.3486H99.5442V73.1161H103.32V69.3486Z" fill="black"/>
<path d="M107.096 69.3486H103.32V73.1161H107.096V69.3486Z" fill="black"/>
<path d="M110.873 69.3486H107.097V73.1161H110.873V69.3486Z" fill="black"/>
<path d="M114.649 69.3486H110.873V73.1161H114.649V69.3486Z" fill="black"/>
<path d="M118.425 69.3486H114.649V73.1161H118.425V69.3486Z" fill="black"/>
<path d="M122.2 69.3486H118.424V73.1161H122.2V69.3486Z" fill="black"/>
<path d="M125.977 69.3486H122.201V73.1161H125.977V69.3486Z" fill="black"/>
<path d="M129.753 69.3486H125.977V73.1161H129.753V69.3486Z" fill="black"/>
<path d="M35.352 73.1162H31.5759V76.8836H35.352V73.1162Z" fill="black"/>
<path d="M46.6796 73.1162H42.9036V76.8836H46.6796V73.1162Z" fill="black"/>
<path d="M54.2316 73.1162H50.4556V76.8836H54.2316V73.1162Z" fill="black"/>
<path d="M58.0085 73.1162H54.2324V76.8836H58.0085V73.1162Z" fill="black"/>
<path d="M65.5605 73.1162H61.7844V76.8836H65.5605V73.1162Z" fill="black"/>
<path d="M69.3361 73.1162H65.5601V76.8836H69.3361V73.1162Z" fill="black"/>
<path d="M76.8883 73.1177H73.1123V76.8851H76.8883V73.1177Z" fill="black"/>
<path d="M80.6638 73.1162H76.8877V76.8836H80.6638V73.1162Z" fill="black"/>
<path d="M84.4401 73.1162H80.6641V76.8836H84.4401V73.1162Z" fill="black"/>
<path d="M88.2158 73.1162H84.4397V76.8836H88.2158V73.1162Z" fill="black"/>
<path d="M95.7692 73.1162H91.9932V76.8836H95.7692V73.1162Z" fill="black"/>
<path d="M99.5441 73.1162H95.7681V76.8836H99.5441V73.1162Z" fill="black"/>
<path d="M103.321 73.1162H99.5447V76.8836H103.321V73.1162Z" fill="black"/>
<path d="M107.096 73.1162H103.32V76.8836H107.096V73.1162Z" fill="black"/>
<path d="M110.873 73.1162H107.097V76.8836H110.873V73.1162Z" fill="black"/>
<path d="M114.648 73.1177H110.872V76.8851H114.648V73.1177Z" fill="black"/>
<path d="M122.201 73.1177H118.425V76.8851H122.201V73.1177Z" fill="black"/>
<path d="M129.753 73.1162H125.977V76.8836H129.753V73.1162Z" fill="black"/>
<path d="M27.8005 76.8838H24.0244V80.6512H27.8005V76.8838Z" fill="black"/>
<path d="M31.5754 76.8838H27.7993V80.6512H31.5754V76.8838Z" fill="black"/>
<path d="M50.4557 76.8838H46.6797V80.6512H50.4557V76.8838Z" fill="black"/>
<path d="M54.2316 76.8838H50.4556V80.6512H54.2316V76.8838Z" fill="black"/>
<path d="M61.7834 76.8838H58.0073V80.6512H61.7834V76.8838Z" fill="black"/>
<path d="M65.5605 76.8838H61.7844V80.6512H65.5605V76.8838Z" fill="black"/>
<path d="M73.112 76.8838H69.3359V80.6512H73.112V76.8838Z" fill="black"/>
<path d="M76.8883 76.8838H73.1123V80.6512H76.8883V76.8838Z" fill="black"/>
<path d="M80.6638 76.8838H76.8877V80.6512H80.6638V76.8838Z" fill="black"/>
<path d="M91.9921 76.8838H88.2161V80.6512H91.9921V76.8838Z" fill="black"/>
<path d="M99.5441 76.8838H95.7681V80.6512H99.5441V76.8838Z" fill="black"/>
<path d="M110.873 76.8838H107.097V80.6512H110.873V76.8838Z" fill="black"/>
<path d="M122.201 76.8838H118.425V80.6512H122.201V76.8838Z" fill="black"/>
<path d="M129.753 76.8838H125.977V80.6512H129.753V76.8838Z" fill="black"/>
<path d="M27.8 80.6514H24.0239V84.4188H27.8V80.6514Z" fill="black"/>
<path d="M31.5754 80.6514H27.7993V84.4188H31.5754V80.6514Z" fill="black"/>
<path d="M35.352 80.6514H31.5759V84.4188H35.352V80.6514Z" fill="black"/>
<path d="M42.904 80.6514H39.1279V84.4188H42.904V80.6514Z" fill="black"/>
<path d="M46.6796 80.6514H42.9036V84.4188H46.6796V80.6514Z" fill="black"/>
<path d="M54.2321 80.6514H50.4561V84.4188H54.2321V80.6514Z" fill="black"/>
<path d="M61.7834 80.6514H58.0073V84.4188H61.7834V80.6514Z" fill="black"/>
<path d="M65.5605 80.6514H61.7844V84.4188H65.5605V80.6514Z" fill="black"/>
<path d="M69.3361 80.6514H65.5601V84.4188H69.3361V80.6514Z" fill="black"/>
<path d="M95.7692 80.6514H91.9932V84.4188H95.7692V80.6514Z" fill="black"/>
<path d="M99.5446 80.6514H95.7686V84.4188H99.5446V80.6514Z" fill="black"/>
<path d="M110.873 80.6514H107.097V84.4188H110.873V80.6514Z" fill="black"/>
<path d="M118.425 80.6514H114.649V84.4188H118.425V80.6514Z" fill="black"/>
<path d="M24.0234 84.4189H20.2473V88.1864H24.0234V84.4189Z" fill="black"/>
<path d="M31.5754 84.4189H27.7993V88.1864H31.5754V84.4189Z" fill="black"/>
<path d="M35.3522 84.4189H31.5762V88.1864H35.3522V84.4189Z" fill="black"/>
<path d="M39.1276 84.4189H35.3516V88.1864H39.1276V84.4189Z" fill="black"/>
<path d="M58.0085 84.4189H54.2324V88.1864H58.0085V84.4189Z" fill="black"/>
<path d="M61.7834 84.4189H58.0073V88.1864H61.7834V84.4189Z" fill="black"/>
<path d="M69.3364 84.4189H65.5603V88.1864H69.3364V84.4189Z" fill="black"/>
<path d="M80.6638 84.4189H76.8877V88.1864H80.6638V84.4189Z" fill="black"/>
<path d="M84.4401 84.4189H80.6641V88.1864H84.4401V84.4189Z" fill="black"/>
<path d="M88.2158 84.4189H84.4397V88.1864H88.2158V84.4189Z" fill="black"/>
<path d="M95.7692 84.4189H91.9932V88.1864H95.7692V84.4189Z" fill="black"/>
<path d="M99.5441 84.4189H95.7681V88.1864H99.5441V84.4189Z" fill="black"/>
<path d="M114.648 84.4189H110.872V88.1864H114.648V84.4189Z" fill="black"/>
<path d="M122.201 84.4189H118.425V88.1864H122.201V84.4189Z" fill="black"/>
<path d="M125.977 84.4189H122.201V88.1864H125.977V84.4189Z" fill="black"/>
<path d="M24.0231 88.1865H20.2471V91.954H24.0231V88.1865Z" fill="black"/>
<path d="M27.8 88.1865H24.0239V91.954H27.8V88.1865Z" fill="black"/>
<path d="M35.3517 88.1865H31.5757V91.954H35.3517V88.1865Z" fill="black"/>
<path d="M46.6796 88.1865H42.9036V91.954H46.6796V88.1865Z" fill="black"/>
<path d="M54.2316 88.1865H50.4556V91.954H54.2316V88.1865Z" fill="black"/>
<path d="M58.0085 88.1865H54.2324V91.954H58.0085V88.1865Z" fill="black"/>
<path d="M65.56 88.1865H61.7839V91.954H65.56V88.1865Z" fill="black"/>
<path d="M73.112 88.1865H69.3359V91.954H73.112V88.1865Z" fill="black"/>
<path d="M76.8881 88.1865H73.1121V91.954H76.8881V88.1865Z" fill="black"/>
<path d="M80.6645 88.1865H76.8884V91.954H80.6645V88.1865Z" fill="black"/>
<path d="M84.4399 88.1865H80.6638V91.954H84.4399V88.1865Z" fill="black"/>
<path d="M95.769 88.1865H91.9929V91.954H95.769V88.1865Z" fill="black"/>
<path d="M99.5446 88.1865H95.7686V91.954H99.5446V88.1865Z" fill="black"/>
<path d="M107.096 88.1865H103.32V91.954H107.096V88.1865Z" fill="black"/>
<path d="M114.648 88.1865H110.872V91.954H114.648V88.1865Z" fill="black"/>
<path d="M118.425 88.1865H114.649V91.954H118.425V88.1865Z" fill="black"/>
<path d="M129.753 88.1865H125.977V91.954H129.753V88.1865Z" fill="black"/>
<path d="M24.0234 91.9541H20.2473V95.7215H24.0234V91.9541Z" fill="black"/>
<path d="M27.8005 91.9541H24.0244V95.7215H27.8005V91.9541Z" fill="black"/>
<path d="M35.3522 91.9541H31.5762V95.7215H35.3522V91.9541Z" fill="black"/>
<path d="M58.0085 91.9541H54.2324V95.7215H58.0085V91.9541Z" fill="black"/>
<path d="M73.112 91.9541H69.3359V95.7215H73.112V91.9541Z" fill="black"/>
<path d="M84.4401 91.9541H80.6641V95.7215H84.4401V91.9541Z" fill="black"/>
<path d="M91.9921 91.9541H88.2161V95.7215H91.9921V91.9541Z" fill="black"/>
<path d="M103.321 91.9541H99.5447V95.7215H103.321V91.9541Z" fill="black"/>
<path d="M107.096 91.9541H103.32V95.7215H107.096V91.9541Z" fill="black"/>
<path d="M114.649 91.9541H110.873V95.7215H114.649V91.9541Z" fill="black"/>
<path d="M118.425 91.9541H114.649V95.7215H118.425V91.9541Z" fill="black"/>
<path d="M122.201 91.9541H118.425V95.7215H122.201V91.9541Z" fill="black"/>
<path d="M24.0236 95.7217H20.2476V99.4891H24.0236V95.7217Z" fill="black"/>
<path d="M27.799 95.7217H24.0229V99.4891H27.799V95.7217Z" fill="black"/>
<path d="M46.6794 95.7217H42.9033V99.4891H46.6794V95.7217Z" fill="black"/>
<path d="M65.5607 95.7217H61.7847V99.4891H65.5607V95.7217Z" fill="black"/>
<path d="M73.112 95.7217H69.3359V99.4891H73.112V95.7217Z" fill="black"/>
<path d="M84.4403 95.7217H80.6643V99.4891H84.4403V95.7217Z" fill="black"/>
<path d="M88.2165 95.7217H84.4404V99.4891H88.2165V95.7217Z" fill="black"/>
<path d="M99.5446 95.7217H95.7686V99.4891H99.5446V95.7217Z" fill="black"/>
<path d="M103.321 95.7217H99.5447V99.4891H103.321V95.7217Z" fill="black"/>
<path d="M107.096 95.7217H103.32V99.4891H107.096V95.7217Z" fill="black"/>
<path d="M110.873 95.7217H107.097V99.4891H110.873V95.7217Z" fill="black"/>
<path d="M114.649 95.7217H110.873V99.4891H114.649V95.7217Z" fill="black"/>
<path d="M118.425 95.7217H114.649V99.4891H118.425V95.7217Z" fill="black"/>
<path d="M122.2 95.7217H118.424V99.4891H122.2V95.7217Z" fill="black"/>
<path d="M125.977 95.7217H122.201V99.4891H125.977V95.7217Z" fill="black"/>
<path d="M54.2321 99.4893H50.4561V103.257H54.2321V99.4893Z" fill="black"/>
<path d="M61.7834 99.4893H58.0073V103.257H61.7834V99.4893Z" fill="black"/>
<path d="M69.3361 99.4893H65.5601V103.257H69.3361V99.4893Z" fill="black"/>
<path d="M73.112 99.4893H69.3359V103.257H73.112V99.4893Z" fill="black"/>
<path d="M80.6638 99.4893H76.8877V103.257H80.6638V99.4893Z" fill="black"/>
<path d="M91.9924 99.4893H88.2163V103.257H91.9924V99.4893Z" fill="black"/>
<path d="M99.5439 99.4893H95.7678V103.257H99.5439V99.4893Z" fill="black"/>
<path d="M114.648 99.4893H110.872V103.257H114.648V99.4893Z" fill="black"/>
<path d="M118.425 99.4893H114.649V103.257H118.425V99.4893Z" fill="black"/>
<path d="M54.2321 103.258H50.4561V107.026H54.2321V103.258Z" fill="black"/>
<path d="M58.008 103.257H54.2319V107.024H58.008V103.257Z" fill="black"/>
<path d="M69.3364 103.257H65.5603V107.024H69.3364V103.257Z" fill="black"/>
<path d="M73.112 103.257H69.3359V107.024H73.112V103.257Z" fill="black"/>
<path d="M80.664 103.257H76.8879V107.024H80.664V103.257Z" fill="black"/>
<path d="M84.4401 103.257H80.6641V107.024H84.4401V103.257Z" fill="black"/>
<path d="M88.216 103.257H84.4399V107.024H88.216V103.257Z" fill="black"/>
<path d="M95.7692 103.258H91.9932V107.026H95.7692V103.258Z" fill="black"/>
<path d="M99.5449 103.258H95.7688V107.026H99.5449V103.258Z" fill="black"/>
<path d="M107.096 103.257H103.32V107.024H107.096V103.257Z" fill="black"/>
<path d="M114.649 103.258H110.873V107.026H114.649V103.258Z" fill="black"/>
<path d="M118.425 103.257H114.649V107.024H118.425V103.257Z" fill="black"/>
<path d="M54.2319 107.024H50.4558V110.792H54.2319V107.024Z" fill="black"/>
<path d="M58.0085 107.024H54.2324V110.792H58.0085V107.024Z" fill="black"/>
<path d="M61.7836 107.024H58.0076V110.792H61.7836V107.024Z" fill="black"/>
<path d="M73.112 107.024H69.3359V110.792H73.112V107.024Z" fill="black"/>
<path d="M88.2158 107.024H84.4397V110.792H88.2158V107.024Z" fill="black"/>
<path d="M95.7692 107.024H91.9932V110.792H95.7692V107.024Z" fill="black"/>
<path d="M99.5439 107.024H95.7678V110.792H99.5439V107.024Z" fill="black"/>
<path d="M114.649 107.024H110.873V110.792H114.649V107.024Z" fill="black"/>
<path d="M125.977 107.024H122.201V110.792H125.977V107.024Z" fill="black"/>
<path d="M129.753 107.024H125.977V110.792H129.753V107.024Z" fill="black"/>
<path d="M54.2321 110.792H50.4561V114.559H54.2321V110.792Z" fill="black"/>
<path d="M58.008 110.792H54.2319V114.559H58.008V110.792Z" fill="black"/>
<path d="M61.7834 110.792H58.0073V114.559H61.7834V110.792Z" fill="black"/>
<path d="M69.3361 110.792H65.5601V114.559H69.3361V110.792Z" fill="black"/>
<path d="M73.112 110.792H69.3359V114.559H73.112V110.792Z" fill="black"/>
<path d="M80.664 110.792H76.8879V114.559H80.664V110.792Z" fill="black"/>
<path d="M84.4401 110.792H80.6641V114.559H84.4401V110.792Z" fill="black"/>
<path d="M95.7692 110.792H91.9932V114.559H95.7692V110.792Z" fill="black"/>
<path d="M99.5441 110.792H95.7681V114.559H99.5441V110.792Z" fill="black"/>
<path d="M103.32 110.792H99.5444V114.559H103.32V110.792Z" fill="black"/>
<path d="M107.096 110.792H103.32V114.559H107.096V110.792Z" fill="black"/>
<path d="M110.873 110.792H107.097V114.559H110.873V110.792Z" fill="black"/>
<path d="M114.649 110.792H110.873V114.559H114.649V110.792Z" fill="black"/>
<path d="M118.425 110.792H114.649V114.559H118.425V110.792Z" fill="black"/>
<path d="M129.753 110.792H125.977V114.559H129.753V110.792Z" fill="black"/>
<path d="M54.2321 114.56H50.4561V118.327H54.2321V114.56Z" fill="black"/>
<path d="M58.008 114.56H54.2319V118.327H58.008V114.56Z" fill="black"/>
<path d="M61.7841 114.56H58.0081V118.327H61.7841V114.56Z" fill="black"/>
<path d="M65.56 114.56H61.7839V118.327H65.56V114.56Z" fill="black"/>
<path d="M76.8881 114.56H73.1121V118.327H76.8881V114.56Z" fill="black"/>
<path d="M80.6638 114.56H76.8877V118.327H80.6638V114.56Z" fill="black"/>
<path d="M84.4403 114.56H80.6643V118.327H84.4403V114.56Z" fill="black"/>
<path d="M99.5446 114.56H95.7686V118.327H99.5446V114.56Z" fill="black"/>
<path d="M103.32 114.56H99.5444V118.327H103.32V114.56Z" fill="black"/>
<path d="M129.753 114.56H125.977V118.327H129.753V114.56Z" fill="black"/>
<path d="M58.0085 118.327H54.2324V122.095H58.0085V118.327Z" fill="black"/>
<path d="M61.7834 118.327H58.0073V122.095H61.7834V118.327Z" fill="black"/>
<path d="M69.3364 118.327H65.5603V122.095H69.3364V118.327Z" fill="black"/>
<path d="M80.6645 118.324H76.8884V122.092H80.6645V118.324Z" fill="black"/>
<path d="M88.2158 118.327H84.4397V122.095H88.2158V118.327Z" fill="black"/>
<path d="M91.9921 118.327H88.2161V122.095H91.9921V118.327Z" fill="black"/>
<path d="M95.7692 118.327H91.9932V122.095H95.7692V118.327Z" fill="black"/>
<path d="M99.5441 118.327H95.7681V122.095H99.5441V118.327Z" fill="black"/>
<path d="M103.321 118.327H99.5447V122.095H103.321V118.327Z" fill="black"/>
<path d="M110.873 118.327H107.097V122.095H110.873V118.327Z" fill="black"/>
<path d="M114.648 118.327H110.872V122.095H114.648V118.327Z" fill="black"/>
<path d="M122.201 118.327H118.425V122.095H122.201V118.327Z" fill="black"/>
<path d="M125.977 118.327H122.201V122.095H125.977V118.327Z" fill="black"/>
<path d="M129.753 118.327H125.977V122.095H129.753V118.327Z" fill="black"/>
<path d="M58.0085 122.092H54.2324V125.859H58.0085V122.092Z" fill="black"/>
<path d="M65.5605 122.092H61.7844V125.859H65.5605V122.092Z" fill="black"/>
<path d="M69.3364 122.092H65.5603V125.859H69.3364V122.092Z" fill="black"/>
<path d="M80.6638 122.092H76.8877V125.859H80.6638V122.092Z" fill="black"/>
<path d="M84.4406 122.092H80.6646V125.859H84.4406V122.092Z" fill="black"/>
<path d="M91.9921 122.092H88.2161V125.859H91.9921V122.092Z" fill="black"/>
<path d="M114.648 122.092H110.872V125.859H114.648V122.092Z" fill="black"/>
<path d="M118.425 122.092H114.649V125.859H118.425V122.092Z" fill="black"/>
<path d="M122.2 122.092H118.424V125.859H122.2V122.092Z" fill="black"/>
<path d="M129.753 122.092H125.977V125.859H129.753V122.092Z" fill="black"/>
<path d="M54.2316 125.861H50.4556V129.628H54.2316V125.861Z" fill="black"/>
<path d="M65.5607 125.861H61.7847V129.628H65.5607V125.861Z" fill="black"/>
<path d="M76.8883 125.861H73.1123V129.628H76.8883V125.861Z" fill="black"/>
<path d="M80.6645 125.862H76.8884V129.63H80.6645V125.862Z" fill="black"/>
<path d="M95.769 125.861H91.9929V129.628H95.769V125.861Z" fill="black"/>
<path d="M99.5441 125.861H95.7681V129.628H99.5441V125.861Z" fill="black"/>
<path d="M103.321 125.861H99.5447V129.628H103.321V125.861Z" fill="black"/>
<path d="M42.7148 20.373H24.2122H20.2473V24.3288V42.7893V46.7451H24.2122H42.7148H46.6797V42.7893V24.3288V20.373H42.7148ZM42.7148 42.7893H24.2122V24.3288H42.7148V42.7893Z" fill="black"/>
<path d="M125.788 20.373H107.285H103.32V24.3288V42.7893V46.7451H107.285H125.788H129.753V42.7893V24.3288V20.373H125.788ZM125.788 42.7893H107.285V24.3288H125.788V42.7893Z" fill="black"/>
<path d="M42.7146 103.258H24.2119H20.2471V107.214V125.675V129.63H24.2119H42.7146H46.6794V125.675V107.214V103.258H42.7146ZM42.7146 125.675H24.2119V107.214H42.7146V125.675Z" fill="black"/>
<path d="M39.1275 27.9082H27.7993V39.2105H39.1275V27.9082Z" fill="black"/>
<path d="M122.2 27.9082H110.872V39.2105H122.2V27.9082Z" fill="black"/>
<path d="M39.1275 110.792H27.7993V122.094H39.1275V110.792Z" fill="black"/>
</svg>
